<?xml version="1.0" standalone="no"?>
<!DOCTYPE svg PUBLIC "-//W3C//DTD SVG 20010904//EN"
 "http://www.w3.org/TR/2001/REC-SVG-20010904/DTD/svg10.dtd">
<svg version="1.0" xmlns="http://www.w3.org/2000/svg"
 width="720.000000pt" height="720.000000pt" viewBox="0 0 720.000000 720.000000"
 preserveAspectRatio="xMidYMid meet">

<g transform="translate(0.000000,720.000000) scale(0.100000,-0.100000)"
fill="#000000" stroke="none">
<path d="M3888 5718 c-3 -73 -4 -133 -4 -134 1 -1 49 -4 108 -8 l108 -6 -101
140 c-55 77 -102 140 -103 140 -2 0 -6 -60 -8 -132z"/>
<path d="M2068 5210 l-3 -365 -70 0 -70 0 -3 173 -2 174 -40 52 c-21 30 -48
69 -60 87 -12 19 -19 26 -16 15 48 -145 23 -274 -73 -379 -86 -93 -195 -127
-408 -127 l-83 0 0 -140 0 -140 -65 0 c-36 0 -65 -4 -65 -8 0 -4 21 -37 46
-72 26 -35 240 -333 475 -663 l429 -598 0 89 0 89 94 5 c72 4 102 10 128 26
34 21 78 86 78 116 0 14 28 16 270 16 l269 0 10 -38 c11 -39 46 -78 91 -103
21 -12 184 -15 913 -17 l887 -3 0 -830 0 -829 -1366 0 c-751 0 -1364 -3 -1362
-8 2 -6 1025 -1366 1227 -1633 l66 -87 140 -7 c387 -18 915 66 1305 209 519
189 948 463 1335 850 594 595 940 1329 1037 2196 17 152 14 562 -4 711 l-15
115 -368 515 c-203 283 -442 616 -531 741 l-162 226 -7 -375 -7 -376 -33 -56
c-44 -74 -107 -136 -174 -168 -43 -21 -73 -28 -143 -31 l-88 -4 6 63 c8 89 8
89 56 89 60 0 117 17 157 47 34 27 70 92 71 129 0 22 0 22 -62 -4 -51 -22 -79
-27 -148 -27 -75 0 -93 4 -150 31 -120 57 -177 127 -199 247 -8 44 -23 76 -63
131 -29 41 -53 74 -53 73 0 -1 2 -112 5 -246 4 -196 2 -245 -8 -249 -7 -2
-109 0 -225 5 -198 8 -216 11 -269 35 -106 49 -186 153 -208 269 -7 34 -24 68
-53 107 -24 31 -49 66 -56 77 -11 19 -12 18 -6 -5 4 -14 10 -60 12 -102 11
-171 -79 -303 -244 -357 -131 -43 -250 -19 -348 71 -69 62 -101 117 -117 194
-9 45 -25 77 -66 134 -30 41 -51 66 -47 55 5 -11 11 -123 13 -248 l4 -229
-224 4 c-218 3 -224 4 -280 30 -72 33 -153 108 -184 170 -47 92 -49 232 -5
321 l20 40 -47 68 c-26 38 -50 67 -54 66 -6 -2 -157 -191 -232 -289 l-28 -37
132 -163 c73 -90 140 -171 149 -181 24 -28 0 -37 -99 -36 l-85 0 -88 115 c-49
63 -94 113 -100 111 -7 -2 -48 -54 -91 -115 l-79 -112 -71 0 c-74 0 -116 7
-116 19 0 4 47 70 104 147 58 76 101 141 97 144 -10 7 -285 391 -293 410 -3 8
-8 -149 -10 -350z m2353 -959 c440 -169 985 -381 1581 -612 148 -57 268 -109
268 -116 0 -28 -642 -1682 -681 -1755 -11 -20 -34 -13 -374 120 l-180 70 -3
151 c-2 126 0 151 12 151 8 0 56 -16 108 -36 102 -40 258 -94 269 -94 4 0 9 8
12 18 3 9 63 166 135 347 214 546 334 867 325 875 -13 11 -1703 661 -1780 684
-20 6 -26 -5 -83 -151 -34 -87 -71 -182 -82 -210 l-19 -53 -156 0 c-128 0
-154 2 -150 14 73 191 233 599 255 651 46 109 54 125 67 125 7 0 221 -80 476
-179z"/>
<path d="M5513 5370 c3 -107 11 -213 17 -235 18 -59 77 -111 142 -124 92 -20
190 11 233 72 25 35 17 44 -9 9 l-23 -32 -164 227 c-89 126 -171 239 -182 253
-19 25 -19 24 -14 -170z"/>
<path d="M3215 5416 c-22 -8 -58 -35 -81 -60 -74 -80 -82 -188 -21 -268 53
-69 91 -82 250 -86 l137 -4 0 118 c0 66 -5 136 -9 158 -26 112 -164 182 -276
142z"/>
<path d="M3880 5327 c0 -114 18 -203 52 -250 32 -45 118 -80 182 -75 113 9
186 81 194 188 4 50 0 69 -22 114 -47 97 -120 126 -313 126 l-93 0 0 -103z"/>
<path d="M4835 5412 c-144 -68 -178 -239 -69 -348 51 -52 101 -64 254 -64
l110 0 0 113 c0 133 -17 202 -60 245 -64 64 -164 87 -235 54z"/>
<path d="M1375 5403 c-97 -51 -134 -145 -135 -341 l0 -64 148 4 c134 3 151 5
190 28 51 29 78 68 93 139 21 100 -28 200 -117 237 -44 19 -142 17 -179 -3z"/>
<path d="M5933 5265 c0 -44 2 -61 4 -37 2 23 2 59 0 80 -2 20 -4 1 -4 -43z"/>
<path d="M2370 3025 l0 -115 265 0 265 0 0 115 0 115 -265 0 -265 0 0 -115z"/>
<path d="M3720 3109 c-30 -5 -93 -28 -139 -50 -296 -146 -399 -493 -231 -780
76 -128 228 -239 368 -268 295 -61 591 127 667 424 63 246 -62 509 -296 624
-115 56 -231 72 -369 50z m245 -263 c66 -30 136 -109 158 -176 9 -29 17 -81
17 -115 0 -162 -142 -295 -314 -295 -117 0 -220 71 -274 188 -21 47 -24 64
-20 136 3 50 11 94 22 114 30 58 89 114 151 144 80 38 185 40 260 4z"/>
</g>
</svg>
